<?xml version="1.0" encoding="utf-8"?>
<!DOCTYPE svg PUBLIC "-//W3C//DTD SVG 20010904//EN" "http://www.w3.org/TR/2001/REC-SVG-20010904/DTD/svg10.dtd">
<svg version="1.0" xmlns="http://www.w3.org/2000/svg" width="1018px" height="263px" viewBox="0 0 1018 263" preserveAspectRatio="xMidYMid meet">
 <g fill="#222426" fill-rule="evenodd">
  <path d="M177 157 L177 155C177 153.9 177 150.7 177 148 C177 145.2 177.4 143 178 143 L179 143L179 143 L179.4 143C179.6 143 180.1 143.3 180.4 143.8 C180.7 144.3 183.3 145.8 186.3 147.3 C189.3 148.7 193.3 150.1 195.3 150.5 L199 151.2 199 141.8 L199 132.3 192.8 130.5 C189.1 129.4 185.1 127.3 182.9 125.3 C180.9 123.5 178.8 120.3 178.1 118.1 C177.5 116 177 112.8 177 111.1 C177 109.3 177.6 106.4 178.3 104.6 C179.1 102.8 181.9 99.5 184.6 97.2 C187.5 94.6 191.3 92.5 194.2 91.8 L199 90.6 199 81.3 L199 72 204.5 72 L210 72 210 80.9 C210 88.5 210.2 89.9 211.7 90.3 C212.7 90.6 215.2 91.1 217.4 91.4 C219.5 91.8 223 92.7 225.1 93.5 L229 95L229 95 L229 102C229 105.8 228.7 109 228.5 109 C228.2 109 227.7 109 227.5 109 L227 109L227 109 L226.7 108.9C226.6 108.8 224 107.5 221 106 C217.9 104.5 214.2 102.9 212.7 102.6 L210 101.9 210 111.4 L210 120.9 212.7 121.5 C214.2 121.8 217.3 122.9 219.5 123.9 C221.7 125 223.6 125.9 223.7 125.9 L224 126L224 126 L226.5 128.7C227.8 130.2 229 131.5 229 131.7 C229 131.8 229.2 132 229.5 132 L230 132L230 132 L230.6 133.1C231 133.8 231.5 136.4 231.7 139 C232 141.6 231.6 145.4 231 147.4 C230.3 149.4 228.6 152.4 227.2 154 C225.8 155.7 222.8 158 220.6 159.2 C218.3 160.3 215.1 161.6 213.5 161.9 C210.5 162.5 210.4 162.6 210.2 170.2 L209.9 178 204.4 178 L199 178 199 170.6 L199 163.2 194.2 162.6 C191.6 162.2 186.6 161 183.2 159.9 C179.8 158.7 177 157.6 177 157.4 L177 157M210 143 C210 134 211 132.9 215.5 137.4 C217.9 139.8 218.6 143.2 217.3 146.4 C216.8 147.8 212 151 210.5 151 C210.2 151 210 147.4 210 143 M193.5 115.9 C190 113 190 107.8 193.6 105 C198.2 101.4 199 102.1 199 110.5 C199 118.8 198 119.7 193.5 115.9 "/>
  <path d="M239 143 L239 120.5C239 108.1 239 97.7 239 97.5 C239 97.2 239 94.5 239 91.5 L239 86L239 86 L244 86L249 86 249 94.5 L249 103 258.5 103 C263.7 103 268.2 103 268.5 103 L269 103L269 103 L269 106.5C269 108.4 269 110.2 269 110.5 L269 111L269 111 L268.2 110.9C267.8 110.9 263.3 111.1 258.2 111.4 L249 112L249 112 L249 130.3C249 147.4 249.1 148.9 251 151.3 C252.2 152.8 253.7 154 254.5 154 C255.3 154 256.2 154 256.5 154 L257 154L257 154 L257 154.5C257 154.7 258.3 155 260 155 C261.6 155 263 154.7 263 154.5 L263 154L263 154 L264.2 154C264.9 154 266 153.7 266.7 153.5 L268 153L268 153 L268.5 157L269 161L269 161 L269 161.4C269 161.6 266.1 162.1 262.6 162.5 C259.1 162.9 254.7 162.8 252.8 162.4 C251 162 248.3 161.1 246.8 160.4 C245.3 159.6 243.2 157.5 242.1 155.7 C241 153.9 239.9 150.3 239.5 147.7 L239 143"/>
  <path d="M292.1 160.6 C282.7 155.9 277.9 146.4 277.9 132.5 C277.9 113.5 287.5 102 303.5 102 C312.7 102 316.8 103.5 322.6 109.3 C329.4 116.1 331.4 122.5 330.7 135.4 C330.2 145.5 328.3 150.5 322.9 155.9 C318.1 160.6 314.7 161.9 305.5 162.5 C297.9 162.9 296.4 162.7 292.1 160.6 M288 138 L287.5 138C287.2 138 287 135.5 287 132.5 C287 129.4 287.2 127 287.5 127 L288 127L288 127 L288 124.7C288 123.5 289 120.7 290.2 118.5 C291.4 116.4 293.7 113.7 295.2 112.6 C297 111.3 300 110.4 303.7 110.2 C308.5 109.8 310 110.2 313 112.1 C314.9 113.4 317.5 116.5 318.7 118.9 C320.5 122.6 321 125 321 132.5 C321 139.9 320.5 142.3 318.7 145.9 C317.5 148.4 315.2 151.2 313.7 152.3 C312 153.6 308.9 154.5 305.2 154.7 C300.4 155.1 298.9 154.7 296 152.8 C294 151.5 291.5 148.6 290.2 146.4 C289 144.2 288 141.4 288 140.2 L288 138"/>
  <path d="M390 106 L390 109.5C390 111.4 390 113.2 390 113.5 C390 113.7 390 114.6 390 115.5 L390 117L390 117 L389.3 116.4C388.9 116.2 386.2 114.8 383.4 113.4 C380.5 112 375.8 110.6 372.8 110.3 C368.5 109.9 366.6 110.3 363 112.1 C359.8 113.7 357.7 115.8 356.1 118.8 C354.6 121.5 353.5 125.5 353.2 129.5 C352.9 133 353.2 138 353.9 140.6 C354.6 143.3 356.2 146.9 357.5 148.6 C358.8 150.4 361.9 152.5 364.4 153.5 C367.4 154.6 370.5 155 373.4 154.7 C375.9 154.4 380.5 152.9 383.7 151.2 C386.9 149.6 389.6 148.2 389.7 148.1 L390 148L390 148 L390 148.5C390 148.7 390 151 390 153.5 L390 158L390 158 L390 158.3C390 158.5 387 159.6 383.4 160.8 C379.8 162 374.5 163 371.6 163 C368.7 163 364.1 162.3 361.4 161.5 C358.7 160.7 354.8 158.6 352.8 157 C350.7 155.3 347.8 151.3 346.3 148.2 C343.8 143.2 343.5 141.3 343.5 133.5 C343.5 127.4 344 122.8 345.3 119.3 C346.5 115.7 348.6 112.7 351.9 109.6 C355.3 106.4 358.4 104.6 362.5 103.4 C366.6 102.2 370.2 101.9 374.4 102.3 C377.7 102.6 382.6 103.6 385.2 104.4 L390 106"/>
  <path d="M414 80 L414 87.5C414 91.6 414 95.2 414 95.5 C414 95.7 414 103.8 414 113.5 L414 131L414 131 L414.5 131.6C414.7 132 415 132.1 415 131.9 C415 131.6 416.5 129.7 418.5 127.7 L422 124L422 124 L423.2 123C423.8 122.4 424.5 122 424.6 122 C424.7 122 425.1 121.6 425.3 121.2 C425.6 120.8 427.9 118.3 430.4 115.7 L435 111L435 111 L435 110.7C435 110.5 436.7 108.7 438.8 106.6 C442.5 103 442.9 102.9 448.9 103.1 L455.1 103.5 452 106.2 L449 109L449 109 L438.5 119.2C432.7 124.8 428 129.9 428 130.4 C428 130.9 429.2 132.6 430.6 134.1 C432.1 135.7 433.5 137 433.6 137 L434 137L434 137 L443.9 147.7C449.4 153.6 453.9 158.6 453.9 158.7 C453.9 158.8 454.1 159 454.3 159 C454.6 159 455 159.6 455.3 160.5 L456 162L456 162 L451.5 162C449 162 446.7 162 446.5 162 C446.2 162 445.5 162 445 162 L444 162L444 162 L443.9 161.7C443.9 161.6 438.6 155.8 432.2 148.8 L420.6 136.2 417.3 138.8 L414 141.5 414 151.7 L414 162L414 162 L413.5 162C413.2 162 410.9 162 408.5 162 L404 162 404 121 L404 80 409 80 L414 80"/>
  <path d="M487 95 L490.5 95C492.4 95 494.2 95 494.5 95 L495 95L495 95 L495.7 94.9C496.1 94.9 498.5 95.4 501 96.1 C504.2 97 507 98.9 511 102.9 C515.3 107.2 517 109.8 518.4 114.4 C519.6 118.1 520.3 123.3 520.3 128.4 C520.3 133.5 519.6 138.8 518.4 142.4 C517.2 146.4 515.1 149.8 511.7 153.5 C507.9 157.6 505.6 159.3 501.6 160.5 C498.8 161.3 496.1 162 495.7 162 L495 162L495 162 L490.5 162L486 162L486 162 L485.3 162C485 162 483 161.5 481 161 C478.9 160.4 475.4 158.6 473.2 157 C470.9 155.4 467.9 152 466.4 149.5 C465 147 463.1 142.4 462.2 139.2 C461.2 135.3 460.9 131 461.3 126 C461.5 121.8 462.3 116.8 462.9 114.8 C463.5 112.8 465.5 108.9 467.2 106.3 C469 103.7 472.5 100.3 475 98.8 C477.4 97.3 480.8 95.8 482.5 95.5 C484.1 95.2 485.8 94.9 486.2 94.9 L487 95M485.4 150.5 C477.4 147.4 473.9 140.7 474 128.5 C474 119.2 475.4 114.3 479.4 110.3 C483.2 106.5 488.3 104.9 493.8 105.9 C503.6 107.7 507.4 113.8 507.4 128 C507.4 136.1 507.1 138.1 505 142.4 C501.1 150.1 492.9 153.5 485.4 150.5 "/>
  <path d="M624 95 L627.5 95L631 95L631 95 L632.7 95C633.7 95 636.2 95.4 638.3 96 C640.4 96.6 643.9 98.7 646.1 100.7 C648.3 102.7 650.9 105.9 651.9 107.9 C652.9 109.9 654 113.5 654.4 116 C654.7 118.4 655 120.8 655 121.2 L655 122L655 122 L655 126.5L655 131L655 131 L654.5 131C654.2 131 643.8 131 631.5 131 C613.2 131 609 131.2 609 132.3 C609 133 609.5 135.2 610.1 137.1 C610.7 138.9 612.4 142 613.7 143.8 C615.1 145.7 618.3 148.1 620.8 149.2 C624.4 150.8 626.7 151.1 632.6 150.7 C638.1 150.4 641.5 149.5 646.3 147.1 C649.8 145.4 653 144 653.3 144 L654 144L654 144 L654 145.5C654 146.3 654 147.2 654 147.5 C654 147.7 654 150 654 152.5 L654 157L654 157 L653.6 157C653.4 157 650.6 157.9 647.4 159.1 C642.7 160.8 639.1 161.3 630.5 161.4 C621.2 161.4 618.7 161.1 614.8 159.3 C612.2 158.1 608.1 155.3 605.7 153.1 C602.5 150.1 600.8 147.4 599 142.5 C597.1 136.9 596.8 134.5 597.1 126.7 C597.4 120.2 598.2 116.1 599.6 112.8 C600.8 110.3 603.4 106.3 605.5 104 C607.6 101.7 610.9 99 612.9 98 C614.9 96.9 618.2 95.9 620.2 95.5 L624 95M610 118.4 C610 116.1 612.4 111.7 615.1 109.3 C620.1 104.9 628.9 103.7 634.9 106.7 C638.9 108.7 643 114.2 643 117.6 L643 120 626.5 120 C612.2 120 610 119.7 610 118.4 "/>
  <path d="M812 95 L815.5 95L819 95L819 95 L819.7 94.9C820.1 94.9 821.8 95.2 823.5 95.6 C825.1 95.9 828.1 97 830 98 C832 99 835.1 101.5 836.9 103.6 C838.8 105.7 841.2 109.4 842.3 111.9 C843.7 115.1 844.5 119.2 844.8 126.1 C845.1 133 844.7 137.2 843.6 141.2 C842.7 144.3 840.5 148.8 838.6 151.1 C836.8 153.5 833.9 156.4 832 157.7 C830.1 158.9 827 160.4 825 161 C823.1 161.6 821.1 162 820.7 162 L820 162L820 162 L815.5 162L811 162L811 162 L810.5 162C810.2 162 809.4 161.9 808.7 161.9 C808 161.9 805.2 160.9 802.4 159.6 C799.7 158.3 795.9 155.5 794 153.4 C792.2 151.3 789.7 147.5 788.6 145 C786.8 141.2 786.5 138.5 786.5 129 C786.5 121.9 787 116 787.8 113.7 C788.5 111.6 790.9 107.7 793 104.9 C795.2 102.2 798.7 99.1 800.7 98.1 C802.8 97 805.8 95.9 807.5 95.6 C809.1 95.2 810.8 94.9 811.2 94.9 L812 95M810.7 150.9 C806.6 149.5 803.3 146.4 800.9 141.7 C798.5 137.1 798.2 121.1 800.4 115.8 C803.5 108.3 811.2 104.3 819.1 106.1 C825.2 107.5 827.3 109.1 830 114.6 C833.1 121.3 833.3 135.5 830.2 141.5 C827.5 146.6 824.3 149.5 819.7 150.9 C815.1 152.2 814.7 152.2 810.7 150.9 "/>
  <path d="M552 161 L541.3 133.2C535.4 117.9 529.8 103.3 528.8 100.7 L526.9 95.9 533.6 96.2 L540.3 96.5 549.5 120.9 C556.9 140.5 558.9 144.9 559.7 143.4 C560.2 142.3 564.4 131.2 569.1 118.7 L577.5 96 583.7 96 C587.1 96 590 96.2 590 96.4 C590 96.7 584.3 111 577.5 128.2 C570.6 145.5 565 159.9 565 160.3 L565 161L565 161 L560.5 161C558 161 555.7 161 555.5 161 C555.2 161 554.3 161 553.5 161 L552 161"/>
  <path d="M669 161 L669 160.5C669 160.2 669 145.6 669 128 L669 96 675.5 96 L682 96 682 100.4 L682 104.9 686.3 101.6 C689.3 99.4 692.7 97.9 696.8 97.1 C700.2 96.4 704.5 96.1 706.4 96.4 L710 97L710 97 L710 98.5C710 99.3 710 100.2 710 100.5 C710 100.7 710 103 710 105.5 L710 110L710 110 L707.8 109.3C706.7 109 702.5 108.9 698.6 109.1 C693 109.4 690.4 110.1 686.7 112.2 L682 115 682 137.5 C682 149.8 682 160.2 682 160.5 L682 161L682 161 L677.5 161C675 161 672.7 161 672.5 161 C672.2 161 671.3 161 670.5 161 L669 161"/>
  <path d="M719 95 L719 94.5C719 94.2 719 92.9 719 91.7 C719 90.5 719.5 87.7 720.1 85.5 C720.7 83.1 722.9 79.7 725.3 77.3 C727.7 74.9 731.1 72.7 733.5 72.1 C735.7 71.5 739.1 71 741.1 71 C743 71 746.8 71.2 749.3 71.5 L754 72L754 72 L754 73C754 73.5 754 74.2 754 74.5 C754 74.7 754 77 754 79.5 L754 84L754 84 L752.4 83.4C751.5 83.2 748.4 82.7 745.4 82.3 C741.9 81.9 738.9 82.1 736.9 83 C735.2 83.7 733.2 85.5 732.4 87 C731.6 88.6 731 91.2 731 92.9 L731 96 740 96 C744.9 96 749.2 96 749.5 96 L750 96L750 96 L750 101.5L750 107 741.5 107 C736.8 107 732.7 107 732.5 107 L732 107L732 107 L731.4 121.7C731.2 129.8 730.9 136.8 730.9 137.2 C730.9 137.6 731 143.1 731 149.5 L731 161L731 161 L726.5 161C724 161 721.7 161 721.5 161 C721.2 161 720.5 161 720 161 L719 161L719 161 L719 137C719 123.8 719 112.7 719 112.5 C719 112.2 719 108.1 719 103.5 L719 95"/>
  <path d="M771 72 L771 111.5C771 133.2 771 151.2 771 151.5 C771 151.7 771 154 771 156.5 L771 161L771 161 L766.5 161C764 161 761.7 161 761.5 161 C761.2 161 760.5 161 760 161 L759 161L759 161 L759 158C759 156.3 759 136.3 759 113.5 L759 72 765 72 L771 72"/>
  <path d="M871 161 L870.7 160.5C870.5 160.2 869.4 156.1 868.2 151.2 C866.9 146.4 863.3 132.1 860 119.5 C856.7 106.8 854 96.3 854 96.2 C854 96.1 856.8 96 860.3 96 L866.6 96 871.3 116.2 C873.9 127.3 876.2 137.9 876.6 139.8 C876.9 141.6 877.6 142.7 878 142.3 C878.4 141.8 881.8 131.2 885.6 118.7 L892.5 96 897.5 96 L902.6 95.9 909.9 119.7 C914 132.8 917.4 143.6 917.5 143.7 C917.6 143.9 919.3 136.2 921.4 126.7 C923.5 117.2 925.8 106.4 926.7 102.7 L928.2 96 934.1 96 C937.9 96 940 96.4 940 97.1 C940 97.8 937.4 108 934.4 119.9 C931.3 131.7 927.7 145.7 926.4 150.8 C925 156 924 160.3 924 160.6 L924 161L924 161 L919.5 161C917 161 914.7 161 914.5 161 C914.2 161 913.5 161 913 161 L912 161L912 161 L912 160.2C912 159.8 908.7 149.2 904.8 136.7 C900.8 124.2 897.3 114.3 896.9 114.7 C896.5 115.1 893 125.6 889.1 138 C885.2 150.3 882 160.6 882 160.7 L882 161L882 161 L880.5 161C879.6 161 878.7 161 878.5 161 C878.2 161 876.4 161 874.5 161 L871 161"/>
 </g>
 <g fill="#838485" fill-rule="evenodd">
  <path d="M486 162 L490.5 162L495 162L495 162 L495 162.5C495 162.7 492.9 163 490.5 163 C488 163 486 162.7 486 162.5 L486 162"/>
  <path d="M811 162 L815.5 162L820 162L820 162 L820 162.5C820 162.7 817.9 163 815.5 163 C813 163 811 162.7 811 162.5 L811 162"/>
  <path d="M719 95 L719 103.5C719 108.1 719 112.2 719 112.5 C719 112.7 719 123.8 719 137 L719 161L719 161 L718.5 161C718.2 161 718 146.1 718 128 C718 109.8 718.2 95 718.5 95 L719 95"/>
  <path d="M732.1 107.3 L732.2 107.7 L732 109 L732 109.7C732 110.1 731.7 121.8 731.5 135.7 L731 161L731 161 L731 149.5C731 143.1 730.9 137.6 730.9 137.2 C730.9 136.8 731.2 129.8 731.4 121.7 L732 107"/>
  <path d="M771 71.5 L770.6 72 L770 72 L764.5 72L759 72 759 113 C759 135.5 759 155.5 759 157.5 L759 161L759 161 L758.5 161C758.2 161 758 140.7 758 116 L758 71 764.5 71 L771 71"/>
  <path d="M390 148 L390 147.5C390 147.2 390.2 147 390.5 147 C390.7 147 391 149.4 391 152.5 C391 155.5 390.7 158 390.5 158 L390 158L390 158 L390 153.5C390 151 390 148.7 390 148.5 L390 148"/>
  <path d="M177 143 L177 142.5C177 142.2 177.4 142 178 142 C178.5 142 179 142.2 179 142.5 L179 143L179 143 L178 143C177.4 143 177 145.2 177 148 C177 150.7 177 153.9 177 155 L177 157L177 157 L176.5 157C176.2 157 176 153.8 176 150 C176 146.1 176.2 143 176.5 143 L177 143"/>
  <path d="M257 154 L258.5 154C259.3 154 260.2 154 260.5 154 C260.7 154 261.4 154 262 154 L263 154L263 154 L263 154.5C263 154.7 261.6 155 260 155 C258.3 155 257 154.7 257 154.5 L257 154"/>
  <path d="M288 127 L288 130.5C288 132.4 288 134.2 288 134.5 C288 134.7 288 135.6 288 136.5 L288 138L288 138 L287.5 138C287.2 138 287 135.5 287 132.5 C287 129.4 287.2 127 287.5 127 L288 127"/>
  <path d="M428.5 131.5 L428.8 132.1 L429 132 L429.5 132C429.7 132 430 132.2 430 132.5 L430 133L430 133 L430.5 133C430.7 133 431 133.2 431 133.5 L431 134L431 134 L431.5 134C431.7 134 432 134.2 432 134.5 L432 135L432 135 L432.5 135C432.7 135 433 135.2 433 135.5 L433 136L433 136.1 433.5 136.5 L434 137 L433.5 137C433.2 137 433 136.8 433 136.7 C433 136.5 431.8 135.2 430.5 133.7 L428 131"/>
  <path d="M224.5 126.5 L224.8 127.1 L225 127 L225.5 127C225.7 127 226 127.2 226 127.5 L226 128L226 128 L226.5 128C226.7 128 227 128.2 227 128.5 L227 129L227 129 L227.5 129C227.7 129 228 129.2 228 129.5 L228 130L228 130 L228.5 130C228.7 130 229 130.2 229 130.5 L229 131L229 131.1 229.5 131.5 L230 132 L229.5 132C229.2 132 229 131.8 229 131.7 C229 131.5 227.8 130.2 226.5 128.7 L224 126"/>
  <path d="M655 122 L655.5 122C655.7 122 656 124 656 126.5 C656 128.9 655.7 131 655.5 131 L655 131L655 131 L655 126.5L655 122"/>
  <path d="M448.5 109.5 L447.8 109.8 L448 110 L448 110.5C448 110.7 447.7 111 447.5 111 L447 111L447 111 L447 111.5C447 111.7 446.7 112 446.5 112 L446 112L446 112 L446 112.5C446 112.7 445.7 113 445.5 113 L445 113L445 113 L445 113.5C445 113.7 444.7 114 444.5 114 L444 114L444 114 L444 114.5C444 114.7 443.7 115 443.5 115 L443 115L443 115 L443 115.5C443 115.7 442.7 116 442.5 116 L442 116L442 116 L442 116.5C442 116.7 441.7 117 441.5 117 L441 117L441 117 L441 117.5C441 117.7 440.7 118 440.5 118 L440 118L440 118 L440 118.5C440 118.7 439.7 119 439.5 119 L439 119L439 119 L439 119.5C439 119.7 438.7 120 438.5 120 L438 120L438 120 L438 120.5C438 120.7 437.7 121 437.5 121 L437 121L437 121 L437 121.5C437 121.7 436.7 122 436.5 122 L436 122L436 122 L436 122.5C436 122.7 435.7 123 435.5 123 L435 123L435 123 L435 123.5C435 123.7 434.7 124 434.5 124 L434 124L434 124 L434 124.5C434 124.7 433.7 125 433.5 125 L433 125L433 125 L433 125.5C433 125.7 432.7 126 432.5 126 L432 126L432 126 L432 126.5C432 126.7 431.7 127 431.5 127 L431 127L431 127 L431 127.5C431 127.7 430.7 128 430.5 128 L430 128L430 128 L430 128.5C430 128.7 429.7 129 429.5 129 L429 129L428.8 128.8 428.5 129.5 L428 130 L429.6 128C430.5 126.9 431.3 126 431.4 126 C431.4 126 435.4 122.1 440.2 117.5 L449 109"/>
  <path d="M422 124 L422 123.5C422 123.2 422.2 123 422.5 123 L423 123L423 123 L423 122.5C423 122.2 423.2 122 423.5 122 L424 122L424 122 L424 121.5C424 121.2 424.2 121 424.5 121 L425 121L425 121 L425 120.5C425 120.2 425.2 120 425.5 120 L426 120L426 120 L426 119.5C426 119.2 426.2 119 426.5 119 L427 119L427 119 L427 118.5C427 118.2 427.2 118 427.5 118 L428 118L428 118 L428 117.5C428 117.2 428.2 117 428.5 117 L429 117L429 117 L429 116.5C429 116.2 429.2 116 429.5 116 L430 116L430 116 L430 115.5C430 115.2 430.2 115 430.5 115 L431 115L431 115 L431 114.5C431 114.2 431.2 114 431.5 114 L432 114L432 114 L432 113.5C432 113.2 432.2 113 432.5 113 L433 113L433 113 L433 112.5C433 112.2 433.2 112 433.5 112 L434 112L434.1 112.1 434.5 111.5 L435 111 L430.4 115.7C427.9 118.3 425.6 120.8 425.3 121.2 C425.1 121.6 424.7 122 424.6 122 C424.5 122 423.8 122.4 423.2 123 L422 124"/>
  <path d="M390 117 L390 115.5C390 114.6 390 113.7 390 113.5 C390 113.2 390 111.4 390 109.5 L390 106L390 106 L390.5 106C390.7 106 391 108.7 391 112.1 C391 115.5 390.7 118 390.5 117.6 L390 117"/>
  <path d="M269 111 L264.2 111.5C261.6 111.8 259.1 112 258.7 112 C258.3 112 255.9 112 253.5 112 L249 112L249 112 L258.2 111.4C263.3 111.1 267.8 110.9 268.2 110.9 L269 111"/>
  <path d="M227 109 L227.5 109C227.7 109 228.2 109 228.5 109 C228.7 109 229 105.8 229 102 L229 95L229 95 L229.5 95C229.7 95 230 98.3 230 102.5 C230 108.5 229.7 110 228.5 110 C227.6 110 227 109.7 227 109.5 L227 109"/>
  <path d="M710 97 L710.5 97C710.7 97 711 99.9 711 103.5 C711 107 710.7 110 710.5 110 L710 110L710 110 L710 105.5C710 103 710 100.7 710 100.5 C710 100.2 710 99.3 710 98.5 L710 97"/>
  <path d="M487 95 L487 94.5C487 94.2 488.8 94 491 94 C493.2 94 495 94.2 495 94.5 L495 95L495 95 L494.5 95C494.2 95 492.4 95 490.5 95 L487 95"/>
  <path d="M624 95 L624 94.5C624 94.2 625.5 94 627.5 94 C629.4 94 631 94.2 631 94.5 L631 95L631 95 L627.5 95L624 95"/>
  <path d="M812 95 L812 94.5C812 94.2 813.5 94 815.5 94 C817.4 94 819 94.2 819 94.5 L819 95L819 95 L815.5 95L812 95"/>
 </g>
 <g fill="#f48024" fill-rule="evenodd">
  <path d="M24 171 L24.5 170.3C24.7 169.9 25 169.5 25 169.3 L25 169L25 169 L25.3 168.7C25.6 168.6 26.4 166.9 27.3 165 C28.2 163 30.1 159.4 31.6 157 C33 154.5 35.1 151 36.1 149.2 C37.1 147.4 38.8 144.5 39.8 142.7 C40.9 140.9 47.6 129.1 54.8 116.6 C62 104 68.3 93.2 68.8 92.7 C69.5 92 71.9 92.9 76 95.3 C79.4 97.4 82.3 98.9 82.4 98.7 C82.5 98.6 84.5 95.1 86.9 91 C89.3 86.8 92 82 93.1 80.2 C94.1 78.4 95.9 75.3 97.1 73.2 C98.3 71.1 100.1 67.9 101.2 66 C102.2 64 103.9 61.4 104.9 60.1 L106.7 57.7 114 62 L121.2 66.2 123 63.8 C124 62.5 125.7 59.9 126.7 58 C127.8 56 129.6 52.7 130.8 50.6 C132 48.5 133.7 45.8 134.5 44.5 C136 42.2 135.9 42.1 129.9 38.8 C126.5 37 123.8 35 123.8 34.5 C123.8 33.9 133.2 30.9 144.6 27.8 C156.1 24.7 165.8 22.4 166.1 22.8 C166.5 23.1 169.3 32.8 172.4 44.3 C175.5 55.8 177.9 65.4 177.6 65.6 C177.3 65.9 174.3 64.5 171 62.5 C167.6 60.6 164.7 59 164.5 59 C164.3 59 160.7 64.9 156.5 72.2 C152.3 79.5 148.2 86.6 147.4 88 C146.6 89.3 143.2 95.3 139.9 101.2 C136.5 107.1 133.2 111.9 132.6 111.9 C132 111.9 128.8 110.4 125.6 108.4 C122.5 106.5 119.5 105 119.1 105 C118.7 105 113.5 113.4 107.6 123.8 C101.7 134.2 96.3 143.4 95.7 144.3 C94.6 145.7 93.8 145.4 88.5 142.3 C82.6 138.8 82.5 138.8 80.9 140.8 C80 141.9 76.6 147.5 73.5 153.1 C70.3 158.8 66.6 165 65.3 167 C64 169 63 170.9 63 171.3 L63 172L63 172 L54.5 172C49.8 172 45.6 172 45.2 172 C44.8 172 39.8 171.7 34.2 171.5 L24 171"/>
 </g>
 <g fill="#bab9b9" fill-rule="evenodd">
  <path d="M23 124 L22.9 124.7C22.9 125.1 23.2 135.7 23.4 148.2 L24 171L24 171 L34.2 171.5C39.8 171.7 44.8 172 45.2 172 C45.6 172 49.8 172 54.5 172 L63 172L63 172 L69.5 172C73 172 90.8 172 109 172 L142 172 142 169.5 L142 167L142 167 L142 151.5C142 142.9 142 135.7 142 135.5 C142 135.2 142 132.5 142 129.5 L142 124L142 124 L153.5 124L165 124 165 158.5 L165 193 82.5 193 L0 193 0 158.5 L0 124 11.5 124 L23 124"/>
  <path d="M268 152 L268.5 152C268.7 152 269 152.2 269 152.5 L269 153L269 153 L269.5 153C269.7 153 270 154.8 270 157 C270 159.2 269.7 161 269.5 161 L269 161L269 161 L268.5 157L268 153"/>
  <path d="M770.6 72 L771 71.5 L772 71 L772 71.7C772 72.1 771.7 92.4 771.5 116.7 L771 161L771 161 L771 156.5C771 154 771 151.7 771 151.5 C771 151.2 771 133.2 771 111.5 L771 72"/>
  <path d="M654 144 L654 143.5C654 143.2 654.2 143 654.5 143 C654.7 143 655 146.1 655 150 C655 153.8 654.7 157 654.5 157 L654 157L654 157 L654 152.5C654 150 654 147.7 654 147.5 C654 147.2 654 146.3 654 145.5 L654 144"/>
  <path d="M415.5 130.5 L416.1 130.1 L416 130 L416 129.5C416 129.2 416.2 129 416.5 129 L417 129L417 129 L417 128.5C417 128.2 417.2 128 417.5 128 L418 128L418 128 L418 127.5C418 127.2 418.2 127 418.5 127 L419 127L419 127 L419 126.5C419 126.2 419.2 126 419.5 126 L420 126L420 126 L420 125.5C420 125.2 420.2 125 420.5 125 L421 125L421 125 L421 124.5C421 124.2 421.2 124 421.5 124 L422 124L422 124 L422 124.2C422 124.4 420 126.3 417.7 128.5 C415.4 130.7 413.8 132.1 414.2 131.7 L415 131"/>
  <path d="M269 111 L269 110.5C269 110.2 269 108.4 269 106.5 L269 103L269 103 L269.5 103C269.7 103 270 104.8 270 107 C270 109.2 269.7 111 269.5 111 L269 111"/>
 </g>
 <g fill="#d7d7d7" fill-rule="evenodd">
  <path d="M239 86 L239 91.5C239 94.5 239 97.2 239 97.5 C239 97.7 239 108.1 239 120.5 L239 143L239 143 L238.5 143C238.2 143 238 130.1 238 114.5 C238 98.8 238.2 86 238.5 86 L239 86"/>
  <path d="M732 107 L732.5 107C732.7 107 736.8 107 741.5 107 L750 107 750 101.5 L750 96L750 96 L750.5 96C750.7 96 751 98.4 751 101.5 C751 104.5 750.7 107 750.5 107 L750 107L750 107 L749.2 107.5C748.8 107.7 748.1 108 747.7 108 C747.3 108 743.8 108 740 108 L733 108L732.2 107.7 732.1 107.3 "/>
 </g>
 <g fill="#f4f4f4" fill-rule="evenodd">
  <path d="M23 124 L24 146.5L25 169L25 169 L25 169.3C25 169.5 24.7 169.9 24.5 170.3 L24 171L24 171 L23.4 148.2C23.2 135.7 22.9 125.1 22.9 124.7 L23 124"/>
  <path d="M142 124 L142 129.5C142 132.5 142 135.2 142 135.5 C142 135.7 142 142.9 142 151.5 L142 167L142 167 L141.5 167C141.2 167 141 157.3 141 145.5 C141 133.6 141.2 124 141.5 124 L142 124"/>
  <path d="M404 162 L403.5 162C403.2 162 403 143.5 403 121 C403 98.4 403.2 80 403.5 80 L404 80L404 80 L404 79.5C404 79.2 406.2 79 409 79 C411.7 79 414 79.2 414 79.5 L414 80L414 80 L409 80L404 80 404 121 L404 162 408.5 162 C410.9 162 413.2 162 413.5 162 L414 162L414 162 L414 162.5C414 162.7 411.7 163 409 163 C406.2 163 404 162.7 404 162.5 L404 162"/>
  <path d="M444 162 L445 162C445.5 162 446.2 162 446.5 162 C446.7 162 449 162 451.5 162 L456 162L456 162 L456.6 162.5C457 162.7 454.3 163 450.6 163 C447 163 444 162.7 444 162.5 L444 162"/>
  <path d="M552 161 L553.5 161C554.3 161 555.2 161 555.5 161 C555.7 161 558 161 560.5 161 L565 161L565 161 L565 161.5C565 161.7 562 162 558.5 162 C554.9 162 552 161.7 552 161.5 L552 161"/>
  <path d="M669 161 L670.5 161C671.3 161 672.2 161 672.5 161 C672.7 161 675 161 677.5 161 L682 161L682 161 L682 161.5C682 161.7 679 162 675.5 162 C671.9 162 669 161.7 669 161.5 L669 161"/>
  <path d="M871 161 L874.5 161C876.4 161 878.2 161 878.5 161 C878.7 161 879.6 161 880.5 161 L882 161L882 161 L882 161.5C882 161.7 879.5 162 876.5 162 C873.4 162 871 161.7 871 161.5 L871 161"/>
  <path d="M912 161 L913 161C913.5 161 914.2 161 914.5 161 C914.7 161 917 161 919.5 161 L924 161L924 161 L924 161.5C924 161.7 921.3 162 918 162 C914.7 162 912 161.7 912 161.5 L912 161"/>
  <path d="M754 72 L754.5 72C754.7 72 755 74.7 755 78 C755 81.3 754.7 84 754.5 84 L754 84L754 84 L754 79.5C754 77 754 74.7 754 74.5 C754 74.2 754 73.5 754 73 L754 72"/>
 </g>
</svg>